<svg xmlns="http://www.w3.org/2000/svg" width="264.646" height="320.002" viewBox="0 0 264.646 320.002">
  <g id="Login-amico" transform="translate(-21.342 72.866)">
    <g id="Plants--inject-1" transform="translate(21.18 -80.235)">
      <g id="plants--inject-1-2" data-name="plants--inject-1" transform="translate(0 0)">
        <path id="Path_2749" data-name="Path 2749" d="M435.727,365.271c1.566,3.553,5.447,5.424,9.047,6.873s7.528,3.016,9.491,6.382c3.927,6.78-2.525,16.364,1.683,22.934a12.249,12.249,0,0,0,8.322,4.816c2.689.491,5.424.491,8.136.725a30.009,30.009,0,0,0,3.881-.3,17.7,17.7,0,0,1,11.245,1.192c5.4,3.039,7.013,9.842,10.333,15.1A25.715,25.715,0,0,0,516.03,434.4c2.338.3,7.013.748,9.351-.631a2.762,2.762,0,0,0,.515-.327h0c.351-.374.771-.865.959-1.122a.38.38,0,0,0,0-.164c.958-3.53-.608-7.177-.678-10.824v-.655c.163-4.232.28-8.44.374-12.648q.3-11.689.234-23.378c0-5.05.561-10.567-1.59-15.313-2.338-5.236-8.229-5.353-10.45-10.473-.888-2.057-1.356-4.231-2.221-6.312a18.071,18.071,0,0,0-15.383-10.73c-10.263-.514-19.451,7.785-29.714,7.013-2.642-.21-5.237-1.028-7.855-1.5-8.3-1.566-17.907.795-22.583,7.832A10.778,10.778,0,0,0,435.727,365.271Z" transform="translate(-418.876 -265.468)" fill="#022983"/>
        <g id="Group_1506" data-name="Group 1506" transform="translate(30.767 90.277)">
          <path id="Path_2802" data-name="Path 2802" d="M13.145,75.359s38.585,7.778,58.738,32.109" transform="translate(-13.145 -72.275)" fill="none" stroke="#3d5c80" stroke-width="1"/>
          <path id="Path_2803" data-name="Path 2803" d="M70.4,107.15s-8.681,10.245-27.093,9.331" transform="translate(-20.248 -79.762)" fill="none" stroke="#3d5c80" stroke-width="1"/>
          <path id="Path_2804" data-name="Path 2804" d="M51.561,71.325s6.97,6.77,4.4,15.8" transform="translate(-22.192 -71.325)" fill="none" stroke="#3d5c80" stroke-width="1"/>
        </g>
        <g id="Group_1508" data-name="Group 1508" transform="translate(0 46.362) rotate(-16)">
          <path id="Path_2747" data-name="Path 2747" d="M88.022,84.384S84.913,57.079,71.331,35.875,39.092,1.463,21.676.083-9.814,14.742,8.818,25.8,60.554,48.032,75.8,89.177Z" transform="translate(44.588 0) rotate(30)" fill="#03c6a0"/>
          <g id="Group_1504" data-name="Group 1504" transform="translate(45.256 13.758)">
            <path id="Path_2794" data-name="Path 2794" d="M0,0S35.939,27.488,31.122,81.037" transform="translate(1.516 0)" fill="none" stroke="#099076" stroke-width="1"/>
            <path id="Path_2795" data-name="Path 2795" d="M7.373,0S7.612,8.722,0,11.78" transform="translate(33.366 59.614)" fill="none" stroke="#099076" stroke-width="1"/>
            <path id="Path_2796" data-name="Path 2796" d="M0,0A13.455,13.455,0,0,0,12.935,4.834" transform="translate(19.702 54.324)" fill="none" stroke="#099076" stroke-width="1"/>
            <path id="Path_2797" data-name="Path 2797" d="M7.254,0S8.72,11.1,0,15.272" transform="translate(30.501 32.234)" fill="none" stroke="#099076" stroke-width="1"/>
            <path id="Path_2798" data-name="Path 2798" d="M0,0S8.3,6.6,16.774,2.794" transform="translate(9.588 32.863)" fill="none" stroke="#099076" stroke-width="1"/>
            <path id="Path_2799" data-name="Path 2799" d="M6.282,0S8.781,11.386,0,13.893" transform="translate(20.08 7.923)" fill="none" stroke="#099076" stroke-width="1"/>
            <path id="Path_2800" data-name="Path 2800" d="M0,0S9.379,3.9,13.186,0" transform="translate(0 11.924)" fill="none" stroke="#099076" stroke-width="1"/>
          </g>
        </g>
        <g id="Group_1507" data-name="Group 1507" transform="translate(85.931 0) rotate(31)">
          <path id="Path_2746" data-name="Path 2746" d="M88.022,84.384S84.913,57.079,71.331,35.875,39.092,1.463,21.676.083-9.814,14.742,8.818,25.8,60.554,48.032,75.8,89.177Z" transform="translate(0 8.598)" fill="#73f206"/>
          <g id="Group_1505" data-name="Group 1505" transform="matrix(0.875, -0.485, 0.485, 0.875, 8.711, 19.751)">
            <path id="Path_2794-2" data-name="Path 2794" d="M0,0S33.954,25.97,31.425,76.739a39.039,39.039,0,0,1-1.966,8.991" transform="translate(1.516 0)" fill="none" stroke="#1fcb00" stroke-width="1"/>
            <path id="Path_2795-2" data-name="Path 2795" d="M7.373,0S7.612,8.722,0,11.78" transform="translate(33.366 59.614)" fill="none" stroke="#1fcb00" stroke-width="1"/>
            <path id="Path_2796-2" data-name="Path 2796" d="M0,0A13.455,13.455,0,0,0,12.935,4.834" transform="translate(19.702 54.324)" fill="none" stroke="#1fcb00" stroke-width="1"/>
            <path id="Path_2801" data-name="Path 2801" d="M0,0A11.388,11.388,0,0,0,7.419,5.022" transform="translate(24.55 77.116)" fill="none" stroke="#1fcb00" stroke-width="1"/>
            <path id="Path_2797-2" data-name="Path 2797" d="M7.254,0S8.72,11.1,0,15.272" transform="translate(30.501 32.234)" fill="none" stroke="#1fcb00" stroke-width="1"/>
            <path id="Path_2798-2" data-name="Path 2798" d="M0,0S8.3,6.6,16.774,2.794" transform="translate(9.588 32.863)" fill="none" stroke="#1fcb00" stroke-width="1"/>
            <path id="Path_2799-2" data-name="Path 2799" d="M6.282,0S8.781,11.386,0,13.893" transform="translate(20.08 7.923)" fill="none" stroke="#1fcb00" stroke-width="1"/>
            <path id="Path_2800-2" data-name="Path 2800" d="M0,0S9.379,3.9,13.186,0" transform="translate(0 11.924)" fill="none" stroke="#1fcb00" stroke-width="1"/>
          </g>
        </g>
      </g>
    </g>
    <g id="Shadow--inject-1" transform="translate(21.342 122.078)">
      <path id="shadow--inject-1-2" data-name="shadow--inject-1" d="M384.377,397.279c-15.473-8.933-15.473-23.415,0-32.349s40.561-8.933,56.034,0,15.473,23.415,0,32.349S399.851,406.212,384.377,397.279Z" transform="translate(-187.37 -278.921)" fill="rgba(185,204,248,0.1)"/>
      <path id="shadow--inject-1-3" data-name="shadow--inject-1" d="M54.31,336.6,28.839,321.9c-1.435-.827-1.435-2.175,0-3L177,233.36a5.747,5.747,0,0,1,5.2,0l25.477,14.7c1.435.827,1.435,2.175,0,3L59.512,336.6A5.76,5.76,0,0,1,54.31,336.6Z" transform="translate(-27.762 -232.74)" fill="rgba(0,15,29,0.1)"/>
    </g>
    <g id="Device--inject-1" transform="translate(40.293 -5.571)">
      <g id="device--inject-1-2" data-name="device--inject-1">
        <path id="Path_2692" data-name="Path 2692" d="M193.663,318.523l21.9-12.66c2.256-1.3,3.384-3.008,3.384-4.719V298.1l-22.713-12.811a4.788,4.788,0,0,1-2.181-3.76V254.52l-38.232,22.1v26.994a4.826,4.826,0,0,0,2.181,3.76L177.33,318.5C181.83,321.131,189.15,321.131,193.663,318.523Z" transform="translate(-94.512 -113.22)" fill="#73f206"/>
        <g id="Group_1501" data-name="Group 1501" transform="translate(61.308 141.3)">
          <path id="Path_2693" data-name="Path 2693" d="M193.663,318.523l21.9-12.66c2.256-1.3,3.384-3.008,3.384-4.719V298.1l-22.713-12.811a4.788,4.788,0,0,1-2.181-3.76V254.52l-38.232,22.1v26.994a4.826,4.826,0,0,0,2.181,3.76L177.33,318.5C181.83,321.131,189.15,321.131,193.663,318.523Z" transform="translate(-155.82 -254.52)" fill="#91b9e2"/>
        </g>
        <path id="Path_2694" data-name="Path 2694" d="M164.982,319.051v3.033l-7.007-4.042a4.807,4.807,0,0,1-2.175-3.761V287.275l7.283-4.205c.15,1.849.313,3.76.47,5.641l-5.12,2.946v21.09a4.782,4.782,0,0,0,2.181,3.76Z" transform="translate(-94.504 -123.877)" fill="#094c8e" opacity="0.218"/>
        <path id="Path_2695" data-name="Path 2695" d="M160,304.705a4.814,4.814,0,0,0,2.181,3.76l16.684,9.614c4.513,2.6,11.833,2.607,16.352,0l21.936-12.66c4.519-2.607,4.519-6.831,0-9.439l-16.7-9.614a4.82,4.82,0,0,1-2.175-3.76v-21.1l-38.231,22.1Z" transform="translate(-96.072 -115.829)" fill="#fff"/>
        <path id="Path_2697" data-name="Path 2697" d="M204.89,288.943h0l-4.444-2.563a4.82,4.82,0,0,1-2.175-3.76V261.51l-38.232,22.1v21.1a4.814,4.814,0,0,0,2.181,3.761l4.387,2.507Z" transform="translate(-96.087 -115.829)" fill="#d0dbe6" opacity="0.5"/>
        <path id="Path_2698" data-name="Path 2698" d="M236.823,324.06v3.046c0,1.711-1.134,3.41-3.384,4.719L211.5,344.479a16.439,16.439,0,0,1-7.8,1.937v-3.033a16.44,16.44,0,0,0,7.8-1.937l21.936-12.667C235.689,327.482,236.823,325.771,236.823,324.06Z" transform="translate(-112.383 -139.176)" fill="#73f206"/>
        <path id="Path_2699" data-name="Path 2699" d="M236.823,324.06v3.046c0,1.711-1.134,3.41-3.384,4.719L211.5,344.479a16.439,16.439,0,0,1-7.8,1.937v-3.033a16.44,16.44,0,0,0,7.8-1.937l21.936-12.667C235.689,327.482,236.823,325.771,236.823,324.06Z" transform="translate(-112.383 -139.176)" fill="#abcef2"/>
        <path id="Path_2700" data-name="Path 2700" d="M60.507,244.163a5.86,5.86,0,0,0,5.283-.094L213.7,158.675a6.029,6.029,0,0,0,2.726-4.719V34.3a5.841,5.841,0,0,0-2.545-4.644,5.829,5.829,0,0,0-5.277.1L60.695,115.173A6,6,0,0,0,58,119.9v119.64A5.841,5.841,0,0,0,60.507,244.163Z" transform="translate(-58 -29.071)" fill="#022983"/>
        <path id="Path_2703" data-name="Path 2703" d="M65.408,367.755a5.854,5.854,0,0,1-4.9-.1A5.841,5.841,0,0,1,58,363.023V352.13l5.108,2.958v10.893C63.077,367.567,64.086,368.288,65.408,367.755Z" transform="translate(-58 -149.654)" fill="#73f206"/>
        <path id="Path_2704" data-name="Path 2704" d="M65.408,367.755a5.854,5.854,0,0,1-4.9-.1A5.841,5.841,0,0,1,58,363.023V352.13l5.108,2.958v10.893C63.077,367.567,64.086,368.288,65.408,367.755Z" transform="translate(-58 -149.654)" fill="#c5d4e3"/>
        <path id="Path_2705" data-name="Path 2705" d="M66.1,304.106V315c0,1.736,1.254,2.438,2.726,1.573l147.912-85.394a6.029,6.029,0,0,0,2.726-4.694V215.54Z" transform="translate(-61.023 -98.671)" fill="#73f206"/>
        <path id="Path_2706" data-name="Path 2706" d="M66.11,304.08V315c0,1.736,1.254,2.438,2.726,1.573l147.912-85.394a6.03,6.03,0,0,0,2.72-4.694V215.54Z" transform="translate(-61.027 -98.671)" fill="#dbedfc"/>
        <path id="Path_2707" data-name="Path 2707" d="M74.26,227.743V131.469a3.6,3.6,0,0,1,1.63-2.833L215.742,47.867c.9-.52,1.636-.1,1.636.94v96.325a3.61,3.61,0,0,1-1.636,2.833L75.9,228.715C74.993,229.235,74.26,228.809,74.26,227.743Z" transform="translate(-64.069 -36.003)" fill="#73f206"/>
        <path id="Path_2708" data-name="Path 2708" d="M74.26,227.743V131.469a3.6,3.6,0,0,1,1.63-2.833L215.742,47.867c.9-.52,1.636-.1,1.636.94v96.325a3.61,3.61,0,0,1-1.636,2.833L75.9,228.715C74.993,229.235,74.26,228.809,74.26,227.743Z" transform="translate(-64.069 -36.003)" fill="#00a785"/>
        <path id="Path_2709" data-name="Path 2709" d="M186.927,291.522a5.641,5.641,0,0,0-2.557,4.425c0,1.63,1.147,2.294,2.557,1.479a5.641,5.641,0,0,0,2.557-4.431C189.484,291.365,188.337,290.707,186.927,291.522Z" transform="translate(-105.168 -126.901)" fill="#73f206"/>
        <path id="Path_2710" data-name="Path 2710" d="M63.885,172.633a5.8,5.8,0,0,0-.809,2.689V287L58,284.037V172.395a5.578,5.578,0,0,1,.8-2.695Z" transform="translate(-58 -81.561)" fill="#c5d4e3"/>
        <path id="Path_2711" data-name="Path 2711" d="M216.872,33.861c-.194-1.4-1.329-1.88-2.7-1.122L66.258,118.133a5.6,5.6,0,0,0-1.924,2.024l-5.114-2.952a5.641,5.641,0,0,1,1.93-2.024L209.062,29.793a5.841,5.841,0,0,1,5.283-.1,5.873,5.873,0,0,1,2.526,4.168Z" transform="translate(-58.455 -29.086)" fill="#f0f6fa"/>
      </g>
    </g>
    <g id="Window--inject-1" transform="translate(63.817 13.789)">
      <g id="window--inject-1-2" data-name="window--inject-1" transform="translate(0 0)">
        <g id="window--inject-1-3" data-name="window--inject-1">
          <g id="window--inject-1-4" data-name="window--inject-1">
            <path id="Path_2712" data-name="Path 2712" d="M238.423,60.1a1.354,1.354,0,0,0-1.391.107L97.468,140.836a4.205,4.205,0,0,0-1.88,3.3v95.685a1.88,1.88,0,0,0,.809,1.661c.307.169,1.949,1.122,2.438,1.385a1.1,1.1,0,0,0,1.1-.063L239.47,162.183a4.205,4.205,0,0,0,1.88-3.3V62.7a1.316,1.316,0,0,0-.589-1.254C240.448,61.239,238.774,60.311,238.423,60.1Z" transform="translate(-95.553 -59.961)" fill="#6cf5db"/>
            <path id="Path_2713" data-name="Path 2713" d="M101.36,143,240.93,62.41c1.053-.627,1.88-.113,1.88,1.1v96.181a4.206,4.206,0,0,1-1.88,3.3L101.36,243.621c-1.053.627-1.88-.382-1.88-1.6V146.307a4.218,4.218,0,0,1,1.88-3.3Z" transform="translate(-97.007 -60.775)" fill="#094c8e"/>
            <path id="Path_2714" data-name="Path 2714" d="M241.783,62.777h0c.37,0,.426.464.426.74V159.7a3.56,3.56,0,0,1-1.6,2.758L101.059,243.079a.627.627,0,0,1-.313.1c-.351,0-.627-.539-.627-1.153V146.309a3.6,3.6,0,0,1,1.567-2.776L241.244,62.952a1.11,1.11,0,0,1,.539-.175m0-.627a1.755,1.755,0,0,0-.852.263L101.36,143.007a4.218,4.218,0,0,0-1.88,3.3v95.717c0,.965.539,1.78,1.253,1.78a1.253,1.253,0,0,0,.627-.182L240.924,163a4.206,4.206,0,0,0,1.88-3.3V63.516c0-.865-.426-1.366-1.053-1.366Z" transform="translate(-97.007 -60.778)" fill="#03c6a0"/>
            <path id="Path_2715" data-name="Path 2715" d="M96.34,295.293c.207.107,1.692.953,2.344,1.329a1.949,1.949,0,0,1-.7-1.6V205.549l-2.444-1.429v89.512a1.88,1.88,0,0,0,.8,1.661Z" transform="translate(-95.534 -113.769)" fill="#f0f0f0"/>
            <path id="Path_2716" data-name="Path 2716" d="M242.836,63.5c0-1.2-.859-1.692-1.88-1.084l-139.6,80.593a4.218,4.218,0,0,0-1.88,3.3v6.267L242.836,69.766Z" transform="translate(-97.007 -60.779)" fill="#03c6a0"/>
            <path id="Path_2718" data-name="Path 2718" d="M95.54,199.293v-6.211a3.917,3.917,0,0,1,.583-1.912l2.432,1.4a3.811,3.811,0,0,0-.57,1.88v6.267Z" transform="translate(-95.536 -108.935)" fill="#defff9" opacity="0.322"/>
          </g>
        </g>
        <path id="Path_2719" data-name="Path 2719" d="M230.637,179.219l-83.589,48.259a3.077,3.077,0,0,0-1.4,2.413v23.967a3.077,3.077,0,0,0,1.4,2.413l2.438,1.4a3.1,3.1,0,0,0,2.8,0l83.577-48.259a3.09,3.09,0,0,0,1.4-2.419V183.023a3.077,3.077,0,0,0-1.4-2.413l-2.444-1.4a3.077,3.077,0,0,0-2.776.013Z" transform="translate(-114.24 -104.348)" fill="#73f206"/>
        <path id="Path_2720" data-name="Path 2720" d="M237.5,182.816c-.1-.721-.683-.984-1.385-.577L152.527,230.5a2.814,2.814,0,0,0-.984,1.04l-5.233-3.021a2.864,2.864,0,0,1,.978-1.028l83.6-48.259a3.077,3.077,0,0,1,2.789,0l2.444,1.4A3.134,3.134,0,0,1,237.5,182.816Z" transform="translate(-114.486 -104.354)" fill="#c3ddf7"/>
        <path id="Path_2721" data-name="Path 2721" d="M152.043,287.352a3.134,3.134,0,0,1-2.551-.113l-2.444-1.4a3.09,3.09,0,0,1-1.4-2.413V259.455a2.9,2.9,0,0,1,.414-1.385l5.233,3.021a2.808,2.808,0,0,0-.414,1.373v23.973C150.883,287.233,151.385,287.6,152.043,287.352Z" transform="translate(-114.24 -133.906)" fill="#abcef2"/>
        <path id="Path_2722" data-name="Path 2722" d="M155.405,232.376l83.589-48.259c.771-.445,1.4-.088,1.4.8v23.973a3.09,3.09,0,0,1-1.4,2.419L155.418,259.57c-.771.445-1.4.081-1.4-.809V234.795A3.09,3.09,0,0,1,155.405,232.376Z" transform="translate(-117.364 -106.231)" fill="#03c79f"/>
        <path id="Path_2723" data-name="Path 2723" d="M208.729,199.84l-61.421,35.468a2.864,2.864,0,0,0-.978,1.028l5.233,3.021a2.814,2.814,0,0,1,.984-1.04l61.421-35.461Z" transform="translate(-114.494 -112.171)" fill="#c3ddf7"/>
        <path id="Path_2724" data-name="Path 2724" d="M216.819,204.65,155.4,240.111a3.09,3.09,0,0,0-1.4,2.419v23.96c0,.89.627,1.254,1.4.809l61.421-35.461Z" transform="translate(-117.357 -113.966)" fill="#fff"/>
        <path id="Path_2725" data-name="Path 2725" d="M177.412,245.47l31.695-18.295c1.31-.758,2.375-.219,2.375,1.2a5.1,5.1,0,0,1-2.382,3.949l-31.688,18.3c-1.31.758-2.382.219-2.382-1.2A5.114,5.114,0,0,1,177.412,245.47Z" transform="translate(-125.206 -122.246)" fill="#73f206"/>
        <path id="Path_2792" data-name="Path 2792" d="M177.412,244.836l21.252-12.745c1.31-.758,2.375-.219,2.375,1.2a5.1,5.1,0,0,1-2.382,3.948l-21.246,12.752c-1.31.758-2.382.219-2.382-1.2A5.114,5.114,0,0,1,177.412,244.836Z" transform="translate(-125.206 -111.452)" fill="#03c79f"/>
        <path id="Path_2735" data-name="Path 2735" d="M274.1,215.839l-6.086,3.51.946-8.536a2.87,2.87,0,0,1-1.2-2.7,7.811,7.811,0,0,1,3.3-6.268c1.818-1.028,3.29.063,3.29,2.507a8.31,8.31,0,0,1-1.191,4.074Z" transform="translate(-159.818 -112.777)" fill="#455a64"/>
        <path id="Path_2736" data-name="Path 2736" d="M274.252,222.56l-5.359-3.09-.733,6.606Z" transform="translate(-159.967 -119.498)" fill="#37474f"/>
        <path id="Path_2737" data-name="Path 2737" d="M271.328,201.815a7.176,7.176,0,0,0-2.808,3.729l4.907,2.833h0a8.311,8.311,0,0,0,1.191-4.074C274.631,201.878,273.158,200.769,271.328,201.815Z" transform="translate(-160.102 -112.761)" fill="#37474f"/>
        <path id="Path_2738" data-name="Path 2738" d="M214.095,156.243c-2.087-1.2-4.964-1.034-8.148.8-6.355,3.673-11.507,12.591-11.507,19.931,0,3.685,1.3,6.267,3.4,7.458l4.055,2.357c2.081,1.2,4.958,1.028,8.148-.808,6.355-3.666,11.507-12.591,11.507-19.931,0-3.666-1.291-6.267-3.372-7.439" transform="translate(-132.451 -95.612)" fill="#73f206"/>
        <path id="Path_2739" data-name="Path 2739" d="M212.467,160.815c-6.355,3.673-11.507,12.6-11.507,19.931s5.152,10.316,11.507,6.643,11.513-12.591,11.507-19.931S218.816,157.148,212.467,160.815Z" transform="translate(-134.885 -97.018)" fill="#ffb100"/>
        <path id="Path_2740" data-name="Path 2740" d="M221.884,185.212v.84a18.508,18.508,0,0,1-6.349,6.656c-2.476,1.423-4.713,1.579-6.355.671v-1.73a11.281,11.281,0,0,1,5.177-8.969l1.673-.965a3.968,3.968,0,0,1,4.049-.307A4.212,4.212,0,0,1,221.884,185.212Z" transform="translate(-137.953 -105.133)" fill="#73f206"/>
        <path id="Union_13" data-name="Union 13" d="M3.395,28.957C1.3,27.764,0,25.2,0,21.5l4.083,2.369c.024,3.571,1.225,6.117,3.219,7.352ZM.028,21.489a21.411,21.411,0,0,1,1.648-7.86l-.011-.006C3.692,8.608,7.307,3.975,11.494,1.566c3.2-1.829,6.073-2,8.157-.8l4.072,2.369c-2.081-1.207-4.958-1.039-8.147.8-4.163,2.407-7.8,7.062-9.823,12.046l.006.005a21.368,21.368,0,0,0-1.651,7.881Z" transform="translate(61.995 59.866)" fill="#ffd679"/>
        <path id="Path_2744" data-name="Path 2744" d="M215.62,176.146a2.188,2.188,0,0,1-1.109-.288,2.714,2.714,0,0,1-1.2-2.507,7.157,7.157,0,0,1,3.284-5.691h0a2.457,2.457,0,0,1,3.961,2.294,7.17,7.17,0,0,1-3.284,5.691,3.315,3.315,0,0,1-1.655.5Z" transform="translate(-139.491 -99.96)" fill="#fff"/>
        <path id="Path_2745" data-name="Path 2745" d="M220.079,181.4a3.968,3.968,0,0,0-4.049.307l-1.673.965a11.281,11.281,0,0,0-5.177,8.975v1.736c1.642.909,3.88.752,6.355-.671a18.508,18.508,0,0,0,6.349-6.656v-.84A4.181,4.181,0,0,0,220.079,181.4Z" transform="translate(-137.953 -105.129)" fill="#fff"/>
      </g>
    </g>
    <g id="Character--inject-1" transform="translate(173.402 61.987)">
      <g id="character--inject-1-2" data-name="character--inject-1" transform="translate(0 0)">
        <path id="Path_2754" data-name="Path 2754" d="M385.475,223.555c-3.265,5.519-6.405,10.315-8.613,12.616-4.19,1.943-14.031,4.944-17.879,5.441a2.838,2.838,0,0,1-1.928-.451,16.178,16.178,0,0,0-4.283-1.71c-1.251-.428-1.78-1.026-2.013-.777a1.422,1.422,0,0,0,.132,1.982,10.507,10.507,0,0,0,1.974,1.477,11.659,11.659,0,0,1-5.208.093c-3.335-.878-4.9.723-2.651,4.345.777,1.29,3.98,3.366,10.416,2.806a58.286,58.286,0,0,0,6.848-.777c6.172-1.322,13.036-2.6,17.257-3.887a10.883,10.883,0,0,0,4.1-2.845c7.1-8.092,9.452-13.86,12.562-19.1l-.264-8.551C390.893,214.048,388.2,218.937,385.475,223.555Z" transform="translate(-324.67 -183.623)" fill="#ffa8a7"/>
        <path id="Path_2755" data-name="Path 2755" d="M406.987,213.977a8.092,8.092,0,0,0-7.7,3.288c-3.451,4.423-9.561,15.042-9.561,15.042s2,5.325,7.393,6.219l8.667-11.707S409.894,218.688,406.987,213.977Z" transform="translate(-334.865 -183.552)" fill="#059577"/>
        <rect id="Rectangle_338" data-name="Rectangle 338" width="5.651" height="10.074" transform="translate(85.213 149.779)" fill="#ffa8a7"/>
        <path id="Path_2756" data-name="Path 2756" d="M409.141,363.8l-5.643.2-.288-10.665,5.931-.2Z" transform="translate(-337.865 -214.553)" fill="#ffa8a7"/>
        <path id="Path_2757" data-name="Path 2757" d="M428.513,255.337c0,5.612-.824,50.831-.824,50.831.124,1.617,1.555,4.6,1.267,10.813-.428,8.434-.995,30.6-.995,30.6a7.182,7.182,0,0,1-6.289.124s-4.586-31.094-5.6-39.419c-.886-7.3-2.868-25.2-2.868-25.2h-.942l-2.4,22.3a35.164,35.164,0,0,1,.7,9.328c-.264,3.887-2.083,24-2.083,24a7.47,7.47,0,0,1-6.522.521s-3.218-30.316-3.28-33.877c-.078-4.042,1.881-50.077,1.881-50.077Z" transform="translate(-336.856 -192.768)" fill="#022983"/>
        <path id="Path_2758" data-name="Path 2758" d="M426.211,376.507v-.839c-.544.241-1.8,5.231-4.042,7.361-1.78,1.695-4.205,3.646-4.827,5.535s3.381,3.047,5.052,2.744c1.928-.358,5.286-1.78,6.125-3.109s1.236-3.257,1.92-4.221,2.262-2.037,2.627-3.156a7.477,7.477,0,0,0-.319-3.109c-.264-1.042-.544-2.184-.886-2.083v.637a4.384,4.384,0,0,1-2.829.995C428.208,377.331,426.2,377.16,426.211,376.507Z" transform="translate(-340.998 -219.561)" fill="#d8f2ff"/>
        <path id="Path_2759" data-name="Path 2759" d="M399.651,364.653c-.3,0-.536.443-1.181,1.174a12.442,12.442,0,0,1-3.319,2.488c-2.114,1.1-6.219,2.8-8.092,3.677-1.166.544-1.112,2.006.093,2.837s4.1,1.43,7.587.622c1.9-.443,4.369-2.27,5.939-2.169s4.485.07,5.643-.777.692-2.6.365-4.12c-.358-1.664-.777-4.252-1.329-4.135v.583c-.676,1.073-4.182,1.508-5.675.723Z" transform="translate(-334.083 -217.028)" fill="#fff"/>
        <path id="Path_2760" data-name="Path 2760" d="M414.747,281.653a20.772,20.772,0,0,1-7.867-4.7,17.061,17.061,0,0,0,6.032,5.721l-.964,25.5Z" transform="translate(-338.683 -197.591)" fill="#011f62"/>
        <path id="Path_2761" data-name="Path 2761" d="M425.69,214.819s4.664,1.073,4.33,9.5l-.972,13.409v27.894c-4.151,4.711-22.543,4.369-28.878-.373,0,0,.715-31.586,1.143-40.759.3-6.514,1.8-9.795,8.209-10.51l7.874.342Z" transform="translate(-337.189 -183.57)" fill="#01a785"/>
        <path id="Path_2762" data-name="Path 2762" d="M420.5,190.117a8.551,8.551,0,0,1-8.411,8.753c-4.664,0-7.4-4.027-8.411-8.753a38.873,38.873,0,0,1-.594-5.2c-.121-5.4,4.933-3.561,9-3.561a8.59,8.59,0,0,1,8.411,8.761Z" transform="translate(-337.94 -176.373)" fill="#263238"/>
        <path id="Path_2763" data-name="Path 2763" d="M429.264,197.09a59.346,59.346,0,0,1-1.46,5.929,2.212,2.212,0,0,1-1.253,1.072l.075-3.579Z" transform="translate(-348.62 -170.925)" fill="#263238"/>
        <path id="Path_2764" data-name="Path 2764" d="M428.558,185.456s.925-.233,1.912,1.306c.84,1.314,1.034,4.268-.288,7.773l-2.433.3Z" transform="translate(-343.33 -177.216)" fill="#263238"/>
        <path id="Path_2767" data-name="Path 2767" d="M421.846,193.683c.49.3,1.181-.669,1.788-1.329a2.074,2.074,0,0,1,3.467.878c.979,2.145-.692,4.268-2.091,4.967-2.511,1.244-3.3-.567-3.3-.567l-.21,10c-3.529,5.441-11.536,5.27-8.652-.264v-3.039a15.965,15.965,0,0,1-3.591.187c-1.959-.311-3.187-1.92-3.786-4.128-.948-3.545-1.314-6.405-.505-13.378.886-7.634,9.421-7.719,13.992-4.664S421.846,193.683,421.846,193.683Z" transform="translate(-338.157 -176.107)" fill="#ffa8a7"/>
        <path id="Path_2768" data-name="Path 2768" d="M410.5,184.647c2.037-.2,4.05-.622,6.094-.777a3.963,3.963,0,0,1,1.322.062c1.555.428,1.368,2.247,1.617,3.514.428,2.192.777,5.9,1.6,5.916.249,0,1.182-1.609,1.788-2.184a3.21,3.21,0,0,0,.544-1.671c.155-.9.233-1.827.3-2.744.062-.777.14-1.555.14-2.332a10.938,10.938,0,0,0-.21-2.62,4.578,4.578,0,0,0-1.088-1.959l-.155-.171a10.314,10.314,0,0,0-3.646-2.456,22.019,22.019,0,0,0-6.172-1.345c-2.108-.149-6-1.429-8.823-.736a2.981,2.981,0,0,0-2.456,3.511,6.437,6.437,0,0,0,1.213,3.109,7.586,7.586,0,0,0,4.2,2.744A12.252,12.252,0,0,0,410.5,184.647Z" transform="translate(-337.443 -174.939)" fill="#263238"/>
        <path id="Path_2769" data-name="Path 2769" d="M415.24,210.031a32.288,32.288,0,0,0,5.892-1.765,5.145,5.145,0,0,0,2.114-2.177,7.268,7.268,0,0,1-1.2,2.565c-1.112,1.492-6.8,2.581-6.8,2.581Z" transform="translate(-340.544 -181.814)" fill="#f28f8f"/>
        <path id="Path_2776" data-name="Path 2776" d="M317.31,251.805l3.93-2.269,1.554-1.887-3.923,2.269-1.561,1.887" transform="translate(-307.846 -189.797)" fill="#73f206"/>
        <path id="Path_2777" data-name="Path 2777" d="M317.31,251.805l3.93-2.269,1.554-1.887-3.923,2.269-1.561,1.887" transform="translate(-307.846 -189.797)" opacity="0.4"/>
        <path id="Path_2778" data-name="Path 2778" d="M334.36,261.041l3.93-2.269,3.278-2.9-3.923,2.263-3.284,2.908" transform="translate(-314.21 -192.865)" fill="#73f206"/>
        <path id="Path_2779" data-name="Path 2779" d="M334.36,261.041l3.93-2.269,3.278-2.9-3.923,2.263-3.284,2.908" transform="translate(-314.21 -192.865)" opacity="0.4"/>
        <path id="Path_2780" data-name="Path 2780" d="M355.759,256.227a8.33,8.33,0,0,1,1.623,4.274A8.417,8.417,0,0,1,355.759,256.227Zm9.132.119c-1.322-8.994-6.155-17.887-11.908-21.215-2.764-1.6-5.321-1.655-7.371-.458l-3.7,2.131-.207.125a4.677,4.677,0,0,0-.476.3,6.418,6.418,0,0,0-.853.7l-.125.119c-.113.113-.232.244-.338.37s-.27.32-.395.489a9.293,9.293,0,0,0-.721,1.1,6.5,6.5,0,0,0-.32.627L306.183,222l-3.923,2.263v2.507l.332.188.313.182v.5l-.627.37v1.454l4.745,10.028,4.688,2.714,1.561-1.88,4.136,2.476,2.375,4.068,2.62,1.51,3.278-2.908,4.024,2.325,1.354,5.584,6.763,3.911a36.777,36.777,0,0,0,1.254,4.193c.044.138.1.282.157.439,2.244,5.891,5.81,10.937,9.834,13.262a10.083,10.083,0,0,0,1.51.733,7.882,7.882,0,0,0,.846.282q.376.1.752.169a6.677,6.677,0,0,0,2.394,0l.326-.082a2.935,2.935,0,0,0,.457-.132l.351-.138a2.063,2.063,0,0,0,.357-.169,3.4,3.4,0,0,0,.338-.169l.163-.1a.262.262,0,0,0,.081-.044c.9-.514,3.1-1.792,3.7-2.131,2.983-1.73,4.914-6.1,4.914-12.29A32.257,32.257,0,0,0,364.891,256.346Z" transform="translate(-302.229 -180.223)" fill="#73f206"/>
        <path id="Path_2781" data-name="Path 2781" d="M354.608,265.164c-1.554-.9-2.808-3.554-2.808-5.935s1.254-3.591,2.808-2.7,2.8,3.554,2.8,5.942S356.156,266.06,354.608,265.164Zm6.349-5.208c-1.316-8.988-6.148-17.887-11.908-21.209-2.67-1.542-5.139-1.655-7.145-.6l-.207.125a4.683,4.683,0,0,0-.476.3,6.415,6.415,0,0,0-.852.7l-.125.119c-.113.113-.232.244-.338.37s-.27.32-.395.489a9.286,9.286,0,0,0-.721,1.1,6.481,6.481,0,0,0-.32.627,15.248,15.248,0,0,0-1.254,3.817L302.25,225.61v2.507l.332.188.313.182v.5l-.627.37v1.454l4.744,10.028,4.688,2.714,1.561-1.88,4.136,2.476,2.375,4.068,2.62,1.51,3.278-2.908,4.024,2.325,1.354,5.584,6.769,3.911a36.775,36.775,0,0,0,1.254,4.193c.044.138.1.282.157.439,2.244,5.891,5.81,10.937,9.834,13.262a10.079,10.079,0,0,0,1.51.733,7.868,7.868,0,0,0,.846.282q.376.1.752.169a6.673,6.673,0,0,0,2.394,0l.326-.081a2.934,2.934,0,0,0,.457-.132l.351-.138a2.065,2.065,0,0,0,.357-.169,3.4,3.4,0,0,0,.338-.169l.163-.1a.265.265,0,0,0,.081-.044c2.858-1.805,4.694-6.117,4.694-12.153A33.292,33.292,0,0,0,360.957,259.956Z" transform="translate(-302.225 -181.57)" fill="#ffb100"/>
        <path id="Path_2782" data-name="Path 2782" d="M386.919,280.7c0,2.388-1.254,3.6-2.8,2.7s-2.808-3.547-2.808-5.935,1.254-3.6,2.808-2.7a4,4,0,0,1,1.147,1.053,8.386,8.386,0,0,0,1.623,4.274A4.941,4.941,0,0,1,386.919,280.7Z" transform="translate(-331.734 -199.807)" fill="#c60"/>
        <path id="Path_2783" data-name="Path 2783" d="M388.86,268.163c0,6.186-1.93,10.561-4.914,12.291-.627.338-2.808,1.617-3.7,2.131,2.858-1.805,4.694-6.117,4.694-12.153a33.3,33.3,0,0,0-.364-4.769c-1.316-8.988-6.148-17.887-11.908-21.209-2.67-1.542-5.139-1.655-7.145-.6l3.7-2.131c2.049-1.2,4.607-1.141,7.371.458,5.76,3.328,10.592,12.222,11.908,21.215a32.267,32.267,0,0,1,.363,4.763Z" transform="translate(-325.841 -187.277)" fill="#ffd679"/>
        <path id="Path_2784" data-name="Path 2784" d="M393.7,286.238c0,6.036-1.836,10.348-4.694,12.153.9-.514,3.1-1.792,3.7-2.131,2.983-1.73,4.914-6.1,4.914-12.291v-.689l-3.923,2.269C393.7,285.793,393.7,286.019,393.7,286.238Z" transform="translate(-334.608 -203.096)" fill="#73f206"/>
        <path id="Path_2785" data-name="Path 2785" d="M393.7,286.238c0,6.036-1.836,10.348-4.694,12.153.9-.514,3.1-1.792,3.7-2.131,2.983-1.73,4.914-6.1,4.914-12.291v-.689l-3.923,2.269C393.7,285.793,393.7,286.019,393.7,286.238Z" transform="translate(-334.608 -203.096)" fill="#d69500"/>
        <path id="Path_2786" data-name="Path 2786" d="M337.37,250.069v1.272l-35.11-20.269.646-.376v-.526Z" transform="translate(-302.229 -183.272)" opacity="0.15"/>
        <path id="Path_2787" data-name="Path 2787" d="M337.37,250.905v.746l-35.11-20.269.646-.376V231Z" transform="translate(-302.229 -183.582)" opacity="0.15"/>
        <path id="Path_2788" data-name="Path 2788" d="M374.219,283.6a7.521,7.521,0,0,1-3.76-1.122c-5.722-3.3-10.379-13.13-10.379-21.9,0-5.121,1.548-8.944,4.249-10.5,1.88-1.091,4.105-.953,6.443.395,5.716,3.3,10.373,13.162,10.373,21.936,0,5.114-1.548,8.944-4.249,10.5a5.334,5.334,0,0,1-2.676.7Zm-7.176-33.625a4.739,4.739,0,0,0-2.382.627c-2.463,1.423-3.936,5.152-3.936,9.965,0,8.574,4.513,18.176,10.065,21.359,2.125,1.254,4.137,1.366,5.81.4,2.463-1.423,3.936-5.146,3.936-9.959,0-8.58-4.513-18.176-10.059-21.366a6.9,6.9,0,0,0-3.435-1Z" transform="translate(-323.81 -190.427)" opacity="0.15"/>
        <path id="Path_2789" data-name="Path 2789" d="M338.43,240.619a15.246,15.246,0,0,0-1.254,3.817L302.21,224.243l3.923-2.263Z" transform="translate(-302.21 -180.215)" fill="#ffd679"/>
        <path id="Path_2790" data-name="Path 2790" d="M422.466,246.178c2.27-4.3,4.866-13.953,6.156-18.827,1.835-6.918-1.135-11.271-4.508-11.45-2.107.326-9.048,25.567-9.048,25.567-.777.614-11.326,5.97-14.715,7.315a2.657,2.657,0,0,1-1.881,0,15.059,15.059,0,0,0-4.33-.637c-1.252-.124-1.881-.568-2.044-.3a1.43,1.43,0,0,0,.614,1.842,10.211,10.211,0,0,0,2.176.948,13.283,13.283,0,0,1-4.205.568c-3.265-.07-4.439,1.345-1.9,4.664,1.555,2.068,4.127,2.721,9.872.738,1.648-.575,3.887-1.687,5.978-2.441,4.306-1.555,5.441-1.741,8.722-2.853C418.129,249.691,421.456,248.09,422.466,246.178Z" transform="translate(-334.346 -183.998)" fill="#ffa8a7"/>
        <path id="Path_2791" data-name="Path 2791" d="M430.987,215.06c1.982.272,3.887.715,5.06,2.332s2.114,3.887.964,10.067a96.639,96.639,0,0,1-3.529,12.811s-4.617,1.974-9.522-3.032l3.374-13.044S427.878,215.713,430.987,215.06Z" transform="translate(-342.487 -183.811)" fill="#06b994"/>
      </g>
    </g>
  </g>
</svg>
